<svg width="10" height="11" fill="none" xmlns="http://www.w3.org/2000/svg"><path d="M3.125 4.563H.875A.562.562 0 0 1 .312 4V1.75a.563.563 0 0 1 1.125 0v.65C2.219 1.63 3.42.813 5 .813c2.084 0 3.345 1.237 3.398 1.289a.562.562 0 0 1-.794.797c-.02-.02-1.01-.962-2.604-.962-1.36 0-2.388.83-3 1.5h1.125a.563.563 0 1 1 0 1.126Zm6 1.875h-2.25a.563.563 0 1 0 0 1.125H8c-.61.67-1.64 1.5-3 1.5-1.594 0-2.583-.942-2.604-.962a.562.562 0 0 0-.794.796c.053.053 1.314 1.29 3.398 1.29 1.58 0 2.782-.818 3.563-1.587v.65a.563.563 0 1 0 1.124 0V7a.563.563 0 0 0-.562-.563Z" fill="#000"/></svg>