<svg width="18" height="17" fill="none" xmlns="http://www.w3.org/2000/svg"><path d="M9 0a8.333 8.333 0 1 1-4.192 15.537L.67 16.668l1.127-4.14A8.333 8.333 0 0 1 9 0ZM6.16 4.417l-.167.006a.8.8 0 0 0-.31.084c-.09.05-.173.115-.245.19-.1.094-.156.175-.217.255-.308.4-.474.892-.472 1.398.002.408.109.806.275 1.178.341.751.902 1.547 1.642 2.285.178.177.353.355.542.521a7.875 7.875 0 0 0 3.2 1.705l.473.073c.154.008.308-.004.463-.011.243-.013.48-.078.694-.193.11-.056.216-.117.32-.183 0 0 .035-.023.104-.075.112-.083.181-.143.275-.24a.954.954 0 0 0 .175-.252 2.29 2.29 0 0 0 .156-.61c.02-.165.014-.255.012-.311-.003-.09-.078-.182-.158-.221l-.485-.218s-.725-.316-1.169-.517a.414.414 0 0 0-.146-.034.402.402 0 0 0-.315.105c-.005-.001-.06.046-.663.776a.292.292 0 0 1-.306.109 1.208 1.208 0 0 1-.16-.055l-.21-.09a5.022 5.022 0 0 1-1.312-.836c-.105-.092-.203-.192-.303-.289a5.248 5.248 0 0 1-.85-1.056l-.049-.08a.769.769 0 0 1-.085-.17.267.267 0 0 1 .051-.221s.203-.222.297-.342c.091-.116.169-.23.219-.31.098-.159.129-.321.077-.447A69.415 69.415 0 0 0 6.79 4.64c-.05-.112-.195-.192-.327-.207l-.135-.014a2.82 2.82 0 0 0-.336.004l.168-.006Z" fill="#000"/></svg>