<svg width="18" height="18" fill="none" xmlns="http://www.w3.org/2000/svg"><path d="M14.167 14a1.667 1.667 0 1 0 0 3.333 1.667 1.667 0 0 0 0-3.333ZM.833.667v1.666H2.5l3 6.325L4.367 10.7c-.125.233-.2.508-.2.8a1.667 1.667 0 0 0 1.666 1.667h10V11.5h-9.65a.209.209 0 0 1-.208-.208c0-.042.008-.075.025-.1l.75-1.359h6.208c.625 0 1.175-.35 1.459-.858L17.4 3.583c.058-.133.1-.275.1-.416a.833.833 0 0 0-.833-.834H4.342L3.558.667M5.833 14a1.667 1.667 0 1 0 0 3.333 1.667 1.667 0 0 0 0-3.333Z" fill="#fff"/></svg>