<svg width="18" height="18" viewBox="0 0 18 18" fill="none" xmlns="http://www.w3.org/2000/svg">
<path d="M14.1666 14C13.2416 14 12.5 14.7417 12.5 15.6667C12.5 16.1087 12.6756 16.5326 12.9881 16.8452C13.3007 17.1577 13.7246 17.3333 14.1666 17.3333C14.6087 17.3333 15.0326 17.1577 15.3452 16.8452C15.6577 16.5326 15.8333 16.1087 15.8333 15.6667C15.8333 15.2246 15.6577 14.8007 15.3452 14.4882C15.0326 14.1756 14.6087 14 14.1666 14ZM0.833313 0.666664V2.33333H2.49998L5.49998 8.65833L4.36665 10.7C4.24165 10.9333 4.16665 11.2083 4.16665 11.5C4.16665 11.942 4.34224 12.3659 4.6548 12.6785C4.96736 12.9911 5.39129 13.1667 5.83331 13.1667H15.8333V11.5H6.18331C6.12806 11.5 6.07507 11.478 6.036 11.439C5.99693 11.3999 5.97498 11.3469 5.97498 11.2917C5.97498 11.25 5.98331 11.2167 5.99998 11.1917L6.74998 9.83333H12.9583C13.5833 9.83333 14.1333 9.48333 14.4166 8.975L17.4 3.58333C17.4583 3.45 17.5 3.30833 17.5 3.16666C17.5 2.94565 17.4122 2.73369 17.2559 2.57741C17.0996 2.42113 16.8877 2.33333 16.6666 2.33333H4.34165L3.55831 0.666664M5.83331 14C4.90831 14 4.16665 14.7417 4.16665 15.6667C4.16665 16.1087 4.34224 16.5326 4.6548 16.8452C4.96736 17.1577 5.39129 17.3333 5.83331 17.3333C6.27534 17.3333 6.69926 17.1577 7.01182 16.8452C7.32438 16.5326 7.49998 16.1087 7.49998 15.6667C7.49998 15.2246 7.32438 14.8007 7.01182 14.4882C6.69926 14.1756 6.27534 14 5.83331 14Z" fill="white"/>
</svg>
