<svg width="20" height="20" viewBox="0 0 20 20" fill="none" xmlns="http://www.w3.org/2000/svg">
<path d="M3.33333 4.16666H5.83333V3.33332C5.83333 2.8913 6.00893 2.46737 6.32149 2.15481C6.63405 1.84225 7.05797 1.66666 7.5 1.66666H12.5C12.942 1.66666 13.3659 1.84225 13.6785 2.15481C13.9911 2.46737 14.1667 2.8913 14.1667 3.33332V4.16666H16.6667C16.8877 4.16666 17.0996 4.25445 17.2559 4.41073C17.4122 4.56701 17.5 4.77898 17.5 4.99999C17.5 5.221 17.4122 5.43297 17.2559 5.58925C17.0996 5.74553 16.8877 5.83332 16.6667 5.83332H15.8333V16.6667C15.8333 17.1087 15.6577 17.5326 15.3452 17.8452C15.0326 18.1577 14.6087 18.3333 14.1667 18.3333H5.83333C5.39131 18.3333 4.96738 18.1577 4.65482 17.8452C4.34226 17.5326 4.16667 17.1087 4.16667 16.6667V5.83332H3.33333C3.11232 5.83332 2.90036 5.74553 2.74408 5.58925C2.5878 5.43297 2.5 5.221 2.5 4.99999C2.5 4.77898 2.5878 4.56701 2.74408 4.41073C2.90036 4.25445 3.11232 4.16666 3.33333 4.16666ZM5.83333 5.83332V16.6667H14.1667V5.83332H5.83333ZM7.5 4.16666H12.5V3.33332H7.5V4.16666ZM7.5 7.49999H9.16667V15H7.5V7.49999ZM10.8333 7.49999H12.5V15H10.8333V7.49999Z" fill="#B3B3B3"/>
</svg>
