<svg width="15" height="16" viewBox="0 0 15 16" fill="none" xmlns="http://www.w3.org/2000/svg">
<path d="M7.50004 3.00016C7.50004 3.44219 7.67564 3.86611 7.9882 4.17867C8.30076 4.49123 8.72468 4.66683 9.16671 4.66683C9.60874 4.66683 10.0327 4.49123 10.3452 4.17867C10.6578 3.86611 10.8334 3.44219 10.8334 3.00016M7.50004 3.00016C7.50004 2.55814 7.67564 2.13421 7.9882 1.82165C8.30076 1.50909 8.72468 1.3335 9.16671 1.3335C9.60874 1.3335 10.0327 1.50909 10.3452 1.82165C10.6578 2.13421 10.8334 2.55814 10.8334 3.00016M7.50004 3.00016H0.833374M10.8334 3.00016H14.1667M2.50004 8.00016C2.50004 8.44219 2.67564 8.86611 2.9882 9.17867C3.30076 9.49123 3.72468 9.66683 4.16671 9.66683C4.60874 9.66683 5.03266 9.49123 5.34522 9.17867C5.65778 8.86611 5.83337 8.44219 5.83337 8.00016M2.50004 8.00016C2.50004 7.55814 2.67564 7.13421 2.9882 6.82165C3.30076 6.50909 3.72468 6.3335 4.16671 6.3335C4.60874 6.3335 5.03266 6.50909 5.34522 6.82165C5.65778 7.13421 5.83337 7.55814 5.83337 8.00016M2.50004 8.00016H0.833374M5.83337 8.00016H14.1667M10 13.0002C10 13.4422 10.1756 13.8661 10.4882 14.1787C10.8008 14.4912 11.2247 14.6668 11.6667 14.6668C12.1087 14.6668 12.5327 14.4912 12.8452 14.1787C13.1578 13.8661 13.3334 13.4422 13.3334 13.0002M10 13.0002C10 12.5581 10.1756 12.1342 10.4882 11.8217C10.8008 11.5091 11.2247 11.3335 11.6667 11.3335C12.1087 11.3335 12.5327 11.5091 12.8452 11.8217C13.1578 12.1342 13.3334 12.5581 13.3334 13.0002M10 13.0002H0.833374M13.3334 13.0002H14.1667" stroke="black" stroke-width="1.5" stroke-linecap="round" stroke-linejoin="round"/>
</svg>
