<svg width="18" height="17" viewBox="0 0 18 17" fill="none" xmlns="http://www.w3.org/2000/svg">
<path d="M9.00003 0C13.6025 0 17.3334 3.73083 17.3334 8.33333C17.3334 12.9358 13.6025 16.6667 9.00003 16.6667C7.52735 16.669 6.08058 16.2793 4.80837 15.5375L0.670032 16.6667L1.7967 12.5267C1.05428 11.2541 0.664238 9.80667 0.666699 8.33333C0.666699 3.73083 4.39753 0 9.00003 0ZM6.16003 4.41667L5.99336 4.42333C5.88547 4.4299 5.78001 4.45825 5.68336 4.50667C5.59297 4.55786 5.51045 4.62185 5.43837 4.69667C5.33837 4.79083 5.2817 4.8725 5.22087 4.95167C4.91263 5.35242 4.74668 5.84443 4.7492 6.35C4.75087 6.75833 4.85753 7.15583 5.0242 7.5275C5.36503 8.27917 5.92587 9.075 6.66586 9.8125C6.8442 9.99 7.0192 10.1683 7.20753 10.3342C8.12702 11.1437 9.22274 11.7275 10.4075 12.0392L10.8809 12.1117C11.035 12.12 11.1892 12.1083 11.3442 12.1008C11.5869 12.0883 11.8239 12.0226 12.0384 11.9083C12.1475 11.8521 12.254 11.7909 12.3575 11.725C12.3575 11.725 12.3934 11.7017 12.4617 11.65C12.5742 11.5667 12.6434 11.5075 12.7367 11.41C12.8059 11.3383 12.8659 11.2542 12.9117 11.1583C12.9767 11.0225 13.0417 10.7633 13.0684 10.5475C13.0884 10.3825 13.0825 10.2925 13.08 10.2367C13.0767 10.1475 13.0025 10.055 12.9217 10.0158L12.4367 9.79833C12.4367 9.79833 11.7117 9.4825 11.2684 9.28083C11.222 9.26058 11.1723 9.249 11.1217 9.24667C11.0647 9.24081 11.0071 9.24723 10.9527 9.26548C10.8984 9.28374 10.8486 9.31341 10.8067 9.3525C10.8025 9.35083 10.7467 9.39833 10.1442 10.1283C10.1096 10.1748 10.062 10.2099 10.0074 10.2292C9.95275 10.2485 9.89363 10.2511 9.83753 10.2367C9.78325 10.2221 9.73006 10.2037 9.67836 10.1817C9.57503 10.1383 9.5392 10.1217 9.46836 10.0917C8.99009 9.88295 8.54727 9.60096 8.15587 9.25583C8.05087 9.16417 7.95336 9.06417 7.85336 8.9675C7.52552 8.65353 7.2398 8.29834 7.00336 7.91083L6.9542 7.83167C6.91888 7.77847 6.89033 7.72108 6.8692 7.66083C6.83753 7.53833 6.92003 7.44 6.92003 7.44C6.92003 7.44 7.12253 7.21833 7.2167 7.09833C7.30837 6.98167 7.38586 6.86833 7.43586 6.7875C7.5342 6.62917 7.56503 6.46667 7.51337 6.34083C7.28003 5.77083 7.03836 5.20333 6.79003 4.64C6.74087 4.52833 6.59503 4.44833 6.46253 4.4325C6.41753 4.4275 6.37253 4.4225 6.32753 4.41917C6.21562 4.41361 6.10348 4.41472 5.9917 4.4225L6.16003 4.41667Z" fill="black"/>
</svg>
