<svg width="10" height="11" viewBox="0 0 10 11" fill="none" xmlns="http://www.w3.org/2000/svg">
<path d="M3.125 4.5625H0.875C0.725816 4.5625 0.582742 4.50324 0.477252 4.39775C0.371763 4.29226 0.3125 4.14918 0.3125 4V1.75C0.3125 1.60082 0.371763 1.45774 0.477252 1.35225C0.582742 1.24676 0.725816 1.1875 0.875 1.1875C1.02418 1.1875 1.16726 1.24676 1.27275 1.35225C1.37824 1.45774 1.4375 1.60082 1.4375 1.75V2.39969C2.21797 1.63094 3.41984 0.8125 5 0.8125C7.08406 0.8125 8.345 2.04953 8.39797 2.10203C8.50226 2.20762 8.5606 2.35014 8.56027 2.49855C8.55994 2.64696 8.50098 2.78923 8.39622 2.89436C8.29146 2.99948 8.14941 3.05895 8.001 3.0598C7.85259 3.06066 7.70986 3.00282 7.60391 2.89891C7.58328 2.87922 6.59375 1.9375 5 1.9375C3.64062 1.9375 2.61219 2.76625 2 3.4375H3.125C3.27418 3.4375 3.41726 3.49676 3.52275 3.60225C3.62824 3.70774 3.6875 3.85082 3.6875 4C3.6875 4.14918 3.62824 4.29226 3.52275 4.39775C3.41726 4.50324 3.27418 4.5625 3.125 4.5625ZM9.125 6.4375H6.875C6.72582 6.4375 6.58274 6.49676 6.47725 6.60225C6.37176 6.70774 6.3125 6.85082 6.3125 7C6.3125 7.14918 6.37176 7.29226 6.47725 7.39775C6.58274 7.50324 6.72582 7.5625 6.875 7.5625H8C7.39062 8.23375 6.35938 9.0625 5 9.0625C3.40625 9.0625 2.41672 8.12078 2.39609 8.10063C2.29014 7.99671 2.14741 7.93888 1.999 7.93973C1.85059 7.94058 1.70854 8.00005 1.60378 8.10518C1.49902 8.2103 1.44006 8.35257 1.43973 8.50098C1.4394 8.64939 1.49774 8.79191 1.60203 8.8975C1.655 8.95047 2.91594 10.1875 5 10.1875C6.58016 10.1875 7.78203 9.36906 8.5625 8.60031V9.25C8.5625 9.39918 8.62176 9.54226 8.72725 9.64775C8.83274 9.75324 8.97582 9.8125 9.125 9.8125C9.27418 9.8125 9.41726 9.75324 9.52275 9.64775C9.62824 9.54226 9.6875 9.39918 9.6875 9.25V7C9.6875 6.85082 9.62824 6.70774 9.52275 6.60225C9.41726 6.49676 9.27418 6.4375 9.125 6.4375Z" fill="black"/>
</svg>
