<svg width="18" height="16" viewBox="0 0 18 16" fill="none" xmlns="http://www.w3.org/2000/svg">
<path d="M16.008 0.878746C16.008 0.878746 17.6269 0.247496 17.492 1.78053C17.447 2.41179 17.0423 4.62117 16.7275 7.01092L15.6483 14.09C15.6483 14.09 15.5584 15.127 14.7489 15.3074C13.9395 15.4877 12.7253 14.6761 12.5005 14.4958C12.3206 14.3605 9.12783 12.3315 8.00358 11.3395C7.68879 11.069 7.32904 10.5279 8.04854 9.89663L12.7703 5.38771C13.3099 4.84663 13.8495 3.58412 11.6011 5.11717L5.30546 9.40067C5.30546 9.40067 4.58596 9.85154 3.23692 9.44575L0.313925 8.54396C0.313925 8.54396 -0.765329 7.86763 1.0784 7.19125C5.57529 5.07204 11.1065 2.90775 16.008 0.878746Z" fill="black"/>
</svg>
